<?xml version="1.0" encoding="utf-8"?>
<!-- Generator: Adobe Illustrator 26.2.1, SVG Export Plug-In . SVG Version: 6.00 Build 0)  -->
<svg version="1.1" id="Layer_1" xmlns="http://www.w3.org/2000/svg" xmlns:xlink="http://www.w3.org/1999/xlink" x="0px" y="0px"
	 viewBox="0 0 398.8 234.1" style="enable-background:new 0 0 398.8 234.1;" xml:space="preserve">
<style type="text/css">
	.st0{fill:#DF6A2E;}
	.st1{fill:#F2A1A5;}
</style>
<g>
	<path d="M63.8,207l-4.5,14.1H13.1l1.2-3.5c1.6,0,2.8-0.3,3.7-0.7c0.9-0.5,1.5-1.1,1.9-1.9c0.4-0.8,0.8-1.9,1.3-3.3L32,178.4
		c0.2-0.7,0.3-1.3,0.3-1.8c0-2.5-1.6-3.8-4.7-3.8h-1.2l1.2-3.5h25l-1.2,3.5c-1.9,0-3.4,0.1-4.3,0.4c-1,0.3-1.7,0.8-2.2,1.5
		c-0.5,0.8-1.1,2-1.8,3.9L33.3,209c-0.7,2.1-1.1,3.8-1.1,5c0,0.9,0.4,1.7,1.1,2.2c0.7,0.5,1.7,0.9,2.7,1c1.1,0.2,2.3,0.2,3.8,0.2
		c3.2,0,5.9-0.2,8.2-0.7c2.3-0.5,4.5-1.4,6.4-2.9c2-1.5,3.8-3.7,5.4-6.8H63.8z"/>
	<path d="M97.7,194.8c0-0.8-0.3-1.6-0.9-2.3c-0.6-0.7-1.5-1.1-2.5-1.1c-1.9,0-3.6,0.6-5.2,1.9c-1.6,1.2-2.9,2.7-4,4.4
		c-1.1,1.7-1.9,3.4-2.6,5.1c-0.7,1.7-1.1,2.8-1.3,3.2c5.5-0.9,9.6-2.3,12.4-4.4C96.3,199.6,97.7,197.3,97.7,194.8 M106.3,195
		c0,1.1-0.3,2.3-1,3.6c-0.7,1.4-1.9,2.8-3.7,4.4c-1.8,1.5-4.4,2.9-7.7,4.1c-3.3,1.2-7.5,2-12.6,2.4l-1,0.1c-0.2,1-0.3,2-0.3,2.8
		c0,1.9,0.5,3.3,1.4,4.1c1,0.8,2.4,1.2,4.2,1.2c4.1,0,7.9-2.1,11.6-6.2h4.3c-1.7,2.4-4.2,4.8-7.6,7.2c-3.4,2.4-7.4,3.6-12.1,3.6
		c-3.2,0-6-0.8-8.3-2.5c-2.3-1.7-3.5-4.1-3.5-7.3c0-3.9,1.2-7.7,3.5-11.4c2.3-3.7,5.4-6.7,9.4-9c4-2.3,8.3-3.5,13-3.5
		c3.8,0,6.4,0.6,8.1,1.8C105.5,191.6,106.3,193.2,106.3,195"/>
	<path d="M183.5,169.2l-4.8,14.9h-3.8c0.2-1.3,0.4-2.5,0.4-3.5c0-3.3-0.8-5.4-2.3-6.3c-1.5-0.9-3.5-1.3-5.9-1.3h-4.8l-12.2,37.6
		c-0.5,1.5-0.7,2.6-0.7,3.4c0,1.4,0.5,2.4,1.7,2.9c1.1,0.5,2.2,0.8,3.3,0.8h2l-1.2,3.5H128l1.1-3.5h1.3c2.8,0,4.6-0.4,5.6-1.1
		c1-0.7,1.8-2.3,2.5-4.6l12.6-38.9h-3h-1.1c-2.8,0-5.5,0.7-8,2c-2.5,1.4-4.9,4.4-7.1,9.1H128l4.8-14.9H183.5z"/>
	<path d="M210.6,169.2l-1.2,3.5c-1.1,0-2,0.2-2.7,0.7c-0.7,0.4-1.3,1-1.8,1.8c-0.4,0.8-0.9,1.9-1.4,3.4l-10.3,32
		c-0.5,1.5-0.7,2.6-0.7,3.4c0,1.3,0.6,2.3,1.7,2.8c1.1,0.6,2.4,0.9,4,0.9l-1.1,3.5h-22.9l1.2-3.5c2,0,3.3-0.5,4.1-1.5
		c0.8-1,1.5-2.5,2.1-4.3l10.4-32c0.5-1.6,0.7-2.7,0.7-3.4c0-1.5-0.5-2.4-1.5-2.9c-1-0.4-2.1-0.7-3.3-0.8l1.2-3.5H210.6z"/>
	<path d="M267.2,198.6l-1.3,3.5c-1.8,0-3,0.5-3.8,1.3c-0.8,0.9-1.6,2.4-2.3,4.7l-4.1,12.5l-4.8-2.9c-2.9,1.3-5.8,2.4-8.5,3.1
		c-2.7,0.8-5.7,1.1-9.1,1.1c-4.9,0-9-0.9-12.2-2.8c-3.3-1.9-5.6-4.4-7.2-7.5c-1.5-3.1-2.3-6.4-2.3-10c0-4,0.9-8.1,2.6-12.1
		c1.8-4,4.3-7.6,7.4-10.9c3.1-3.2,6.8-5.8,10.9-7.7c4.1-1.9,8.5-2.8,13-2.8c6.7,0,11.5,2.2,14.3,6.7c1.3-1.2,2.4-3,3.3-5.5h3.8
		l-4.2,17.8h-3.7c0-3.4-0.5-6.3-1.6-8.7c-2-4.5-5.6-6.8-10.8-6.8c-3.6,0-6.8,1.1-9.7,3.2c-2.9,2.2-5.4,4.9-7.4,8.3
		c-2,3.4-3.5,7.1-4.6,11c-1.1,3.9-1.6,7.6-1.6,10.9c0,1.8,0.3,3.6,0.8,5.5c0.5,1.9,1.6,3.6,3.3,5c1.7,1.5,4.1,2.2,7.2,2.2
		c2.9,0,5.6-0.7,8.2-2.1c2.7-1.4,4.4-3.6,5.3-6.8l0.4-1.4c0.3-0.9,0.4-1.6,0.4-2.1c0-2.4-1.8-3.6-5.4-3.6l1.2-3.5H267.2z"/>
	<path d="M316.1,181c0-3.5-1.2-5.6-3.5-6.6c-2.4-1-5.2-1.4-8.4-1.4h-4.9l-6.6,20.8h4.3c6.1,0,10.3-0.6,12.6-1.9
		c2.1-1.1,3.7-2.7,4.9-4.7C315.6,185.1,316.1,183.1,316.1,181 M327.7,182.3c0,1.3-0.3,2.8-0.8,4.3c-0.5,1.5-1.5,3-2.9,4.5
		c-1.4,1.4-3.3,2.7-5.8,3.7c-2.5,1-5.6,1.7-9.4,1.9c1.4,1,2.5,2.1,3.3,3.4c0.8,1.3,1.7,3.4,2.7,6.4c0.7,2.2,1.4,4,2.1,5.3
		c0.7,1.4,1.7,2.5,3,3.6c1.3,1,3.1,1.7,5.4,2.1l-1.1,3.5H310c-0.7-0.9-1.4-2.1-2.1-3.5c-0.7-1.4-1.7-4-3.1-7.7l-1.7-4.5
		c-0.8-2.3-1.5-4-2-4.9c-0.5-0.9-1.3-1.7-2.4-2.2c-1.1-0.5-2.8-0.8-5-0.8h-2.3l-4.3,13.1c-0.5,1.4-0.7,2.5-0.7,3.3
		c0,1.6,0.7,2.6,2,3.1c1.3,0.4,3,0.7,5,0.7l-1.2,3.5h-24.9l1.1-3.5c1.5,0,2.7-0.2,3.5-0.5c0.8-0.3,1.5-0.9,2.1-1.7
		c0.5-0.8,1.1-2,1.6-3.6l10.5-32.5c0.5-1.5,0.7-2.5,0.7-3c0-1.3-0.5-2.2-1.5-2.7c-1-0.6-2.1-0.8-3.3-0.8h-1.6l1.1-3.5h26.1
		c2.9,0,5.3,0.1,7.1,0.4c1.9,0.3,3.7,0.8,5.4,1.7c2.1,1,3.9,2.4,5.3,4.3C327,177.5,327.7,179.7,327.7,182.3"/>
	<path d="M381.3,181.8h-3.8c-1.2-2.9-2.4-5-3.5-6.2c-1.1-1.2-2.2-2-3.4-2.3c-1.2-0.3-3-0.4-5.4-0.4h-6l-6.2,19.5h2.7
		c2.5,0,4.5-0.2,5.8-0.7c1.4-0.5,2.4-1.2,3.1-2.3c0.7-1,1.4-2.6,2.1-4.6h4l-6.6,20.4h-4c0.7-2,1-3.6,1-4.7c0-1.9-0.7-3-2-3.5
		c-1.3-0.5-2.9-0.7-4.7-0.7h-2.7l-4.8,14.7c-0.4,1.1-0.6,2.1-0.6,3.1c0,0.7,0.2,1.3,0.7,1.8c0.5,0.5,1.4,0.9,2.7,1.2
		c1.4,0.3,3.1,0.4,5.4,0.4c4.8,0,8.5-0.9,11-2.7c2.5-1.8,4.7-4.3,6.6-7.6h4.1l-4.6,14H328l1.2-3.5c1.9,0,3.3-0.5,4.2-1.6
		c0.9-1,1.6-2.5,2.1-4.2l10.4-32.5c0.5-1.5,0.7-2.5,0.7-3c0-1.3-0.5-2.3-1.5-2.8c-1-0.5-2.2-0.8-3.6-0.8l1.1-3.5h38.2L381.3,181.8z"
		/>
	<path d="M379.1,228.8h0.5c0.6,0,1,0,1.2-0.1c0.2,0,0.3-0.1,0.4-0.2c0.1-0.1,0.1-0.3,0.1-0.4c0-0.2,0-0.3-0.1-0.4
		c-0.1-0.1-0.2-0.2-0.4-0.2c-0.2,0-0.6-0.1-1.2-0.1h-0.5V228.8z M378,231.8v-5.2h1.1c1.1,0,1.7,0,1.8,0c0.4,0,0.7,0.1,0.9,0.2
		c0.2,0.1,0.4,0.3,0.5,0.5c0.1,0.2,0.2,0.5,0.2,0.8c0,0.4-0.1,0.7-0.4,1c-0.3,0.3-0.6,0.4-1.1,0.5c0.2,0.1,0.3,0.1,0.4,0.2
		c0.1,0.1,0.2,0.2,0.4,0.4c0,0.1,0.2,0.3,0.4,0.6l0.6,1h-1.4l-0.5-0.8c-0.3-0.6-0.6-0.9-0.8-1.1c-0.2-0.1-0.5-0.2-0.8-0.2h-0.3v2.1
		H378z M380.4,225.2c-0.7,0-1.4,0.2-2.1,0.5c-0.7,0.3-1.2,0.8-1.6,1.5c-0.4,0.6-0.6,1.3-0.6,2c0,0.7,0.2,1.3,0.6,2
		c0.4,0.6,0.9,1.1,1.6,1.5c0.7,0.3,1.4,0.5,2.1,0.5c0.7,0,1.5-0.2,2.1-0.5c0.7-0.3,1.2-0.8,1.6-1.5c0.4-0.6,0.6-1.3,0.6-2
		c0-0.7-0.2-1.4-0.6-2c-0.4-0.6-0.9-1.1-1.6-1.5C381.8,225.4,381.1,225.2,380.4,225.2 M380.4,224.2c0.9,0,1.8,0.2,2.6,0.6
		c0.8,0.4,1.5,1,2,1.8c0.5,0.8,0.7,1.6,0.7,2.5c0,0.9-0.2,1.7-0.7,2.5c-0.5,0.8-1.1,1.4-2,1.8c-0.8,0.4-1.7,0.6-2.6,0.6
		c-0.9,0-1.8-0.2-2.6-0.6c-0.9-0.4-1.5-1-2-1.8c-0.5-0.8-0.7-1.6-0.7-2.5c0-0.9,0.2-1.7,0.7-2.5c0.5-0.8,1.1-1.4,2-1.8
		C378.6,224.5,379.5,224.2,380.4,224.2"/>
	<path d="M199.2,68.9v1.4C199.7,69.9,199.7,69.3,199.2,68.9"/>
	<path d="M199.4,69.1l-0.1,1C199.4,69.8,199.7,69.4,199.4,69.1"/>
	<path d="M199.3,69c-0.4,0.1-0.6,0.3-0.5,0.7c-0.1,0.4,0.2,0.7,0.6,0.6c0.7,0.3,0.6-0.5,0.6-0.9C199.8,69.2,199.6,68.8,199.3,69"/>
	<path d="M199.6,65.5c-1.5,0-0.8,1.5-1.2,2.3l0.3,2.7l-0.1,2.1v0.7c0.3,0.1,0.4,0.6,0.8,0.5c0.8-0.3,0.3-1,0.3-1.5
		c0.4-0.5,0.4-1.3-0.3-1.7l0.5-2.7l0.6-0.6C200.6,66.4,200.1,65.9,199.6,65.5"/>
	<path d="M200.4,70.4c0.1-0.8,0.4-1.7-0.3-1.7l-0.1-0.6c-0.1-0.5,0-1.3-0.8-1.1c-0.4-0.6,0.1-1.4-0.8-1.7c0-0.7,0-1.6-1-1.4
		l-0.3,0.8v1.4l0.7,1.7l0.6,1.1l0.3,0.6c-0.3,0.8-0.1,1.5,0.6,1.8c0,0.8,0.6,1.2,0.9,1.8c0.1,0.9-0.4,2,0.8,2.2
		c1-0.2,0.6-1.7,0.5-2.4C201.6,71.8,201.3,70.9,200.4,70.4"/>
	<path class="st0" d="M391.7,102.6c0.2,2.3-0.1-0.3-0.2-0.5c-1.1-0.8-2.9-3.1-4.4-3.9c-0.5-0.5-5.3-2.3-5.6-2.4
		c-2.4-1.2-3-1.3-5.5-2.3c-3.1-1.3-6.1-2.9-9.1-4.2c-3.9-1.6-7.7-3.4-11.4-5.4c-2.5-1.4-10.3-6.2-11-6.4c-0.7-0.2-17.7,1.1-27.7,0.6
		c-1.7-1.1-3.8-2.1-4.9-3.7c-1-0.5-2-1-2.7-2c-0.5,0.1-0.2-0.5,0.1-0.3c5.8-0.5,12.2-0.3,18.2-0.1v0.1c1.2,0,2.4,0.1,3.5,0.3
		c12.1-0.3,20.3-1.6,30.8-8.5c3-2,8.4-8.4,11-13.5c4-8,3.2-20-2.1-26.6c-2.1-2.7-5.4-5.2-8.6-8.2c-6.3-3.4-10.7-6.1-16.8-7.1
		c-1.8-0.3-7.6-1-9.4-1.2c-13.9-1.4-25.9-2.6-36.5,5.2c-3.1,2.3-8.2,10.8-0.9,18.8c0.8,0.8,5.7,3.8,7.6,4.4
		c3.8,0.3,7.4-0.3,10.3-1.2c2-0.3,3.5-1.2,5.4-1.4c0.9,0,1.6-0.6,2.3-0.6c2.5,0,5.4-0.5,8-0.1c4.5,0.3,9,2,11.7,4.2
		c1.1,1.8,2.3,3.7,1.4,6.2c-1.7,2.3-4,3.1-6.1,4.1c-8.4-0.3-17.7,0.3-25.8-1.1v-0.1c-2.5,0-4.5-0.7-6.8-0.8
		c-0.8-0.4-2.2-0.3-3.1-0.7c-1.9,0-3.1-0.6-5-0.6v-0.1c-3.3-0.7-7.2-1.3-10.6-1.4c-3.9-0.1-7.7-0.8-11.6-0.9
		c-8.3-0.2-12.9,0.1-21.4,0.7c-6.5,0.5-16.1,1.5-24.1,3.5c-0.6,0.2-1.3,0.2-1.7,0.6c-2.9,0.3-5.5,1.1-8.3,1.4c-6.1,1-12,1-18.7,0.1
		c-3.5-0.6-5.1-0.5-7.8-1.1c-3.6-0.7-6.6-1.5-10.3-2c-4-0.6-8-1.8-11.9-2.9c-5.7-1.5-11.5-2.6-17.1-3.9c-3.9-1-8.1-1.8-11.7-2.6
		c-1.1-0.2-16.5-6.1-16.5-4.8v-0.1c-5.2-1.3-11.7,0.2-16.9-1.3c-6.8-1.7-9.5-7.3-14.2-10.9c-3-1.5-4.3-4.6-6.5-6.6
		c-1-1.2-2.4-2.2-4-2.4c-1.8-1-4.4-0.5-6.3-0.4c-0.8,0.3-1.9,0.2-2.4,0.8c-4.3,1.5-6.3,5.7-9.6,8.5c-1.2,0.3-2.4,0.7-3.6,1.1
		c-3.5,0.2-5.9,1.4-9.3,1.5c-0.2,0.3-0.7,0.1-1,0.1c-3.3,1-6.4,3.1-7.6,6.4c-1.4,3.6-3.4,6.7-6,9c-5.5,3.3-4.4,3.5-7.9,5.5
		c-1.8,1.4-3.1,2.4-4.6,3.7c-0.1,0.8-2.2,1.9-2.4,4.1c-0.4,3.6,1.8,7.9,4.6,10.1c0.5,0.9-0.1,2.9,0.2,3c0.9,0.3,1.3,5.3,5.1,6.3
		c0.9,1,2.8,1.5,2.6,3.4c0,0,0.6,3.5,0.1,3.9c0.5,1.7,0.9,2.2,2.3,3.7c1,1.4,2.9,1.7,5,1.9c4.4,0.6,5.3-0.6,8.1-2.5
		c1.3-0.2,1.6-1.7,2.7-2c0.4-2.1,3.1-2.3,4.8-3.2c1.2-0.1,1.5-1,2.7-0.8l8.3-0.5l5.7,0.6c3.1,2,2.1,2.5,4,4.4
		c-0.1,0.8,3.9,4.5,3.8,7.3c-0.8,1.2-1.6,3-3.2,3.6c-4,1.6-8.6,2.5-12.5,3.9c-1.3,0.6-3.7,1.7-3.7,1.7l-6.2,2.3c0,0-3.4,0.9-5,1.6
		c-3.8,1.1-3.6,1.5-7.8,1.9c-5.9,0-11.2,1.5-16.9,1.7c-3.2,0.4-6.1,0.6-8.6,2.1c-1.3,0.4-2.4,1.4-3.7,1.9
		c-5.7,3.5-12.1,10.1-10,18.3c1.3,2.7,2.7,5.5,6.2,6.3c0.3,0.3,7.5,2.2,7.5,2.2c2.4,0.5,3.8,0.8,7,1c1.9-0.1,3.6-0.2,5.3-0.7
		c2.6-0.9,5.2-1,7.4-2.4c1.3-0.1,7.5-2.6,11.1-3.9c3-0.9,4.3-1.3,6.3-2.3c3.8-1.9,7.6-3.1,12.4-3.5c0.4-0.1,1.6,0,2,0.2
		c10.5,0.4,21.3-0.1,31.2-0.7c2.2-0.6,4.6-0.5,6.7-1.1c4.7-1.3,7-2.3,10.8-4.5c1.8-1.3,2.5-1.4,4.6-2.9c2-1.4,3.3-2.1,4.3-3.3
		c1.2-0.8,1.3-1.5,2.3-1.2c0.8,0.2,5.7,1.3,5.7,1.3s4.7,1.1,7.6,1.7c1.5,0.3,5.2,1.1,7.7,1.6c2.9,0.4,4.3,1.1,10,1.6
		c1.5,0.4,10.7,0.9,10.7,0.9s12.6-0.6,19.5-3.4c8.1-2.8,23.4-6.9,23.4-6.9c3.6-1.1,6.4-1.8,8.9-2.7c3.6-1,7.3-1.9,10.8-3.1
		c1.4-0.6,6.9-1.8,9.7-2.5c4.3-0.6,7-0.2,11.1,0.7c1.6,0.3,4.7,1.3,5.3,1.5c5.1,1.4,7.8,2.4,12.1,4.1c3.2,1.2,6.9,3.1,10.1,4.1
		c2.9,0.9,9,1.6,9,1.8c3.5,0.3,5.7,0.6,9.1,1c4.8-0.1,8.8,0.2,14.4-0.5c12-0.4,26-0.6,28.8,1.2c3.9,1.7,5.7,5,13.3,10.6
		c0.9,0.8,10.7,5.5,11.4,6.1c5,1.3,9.6,1.1,12.9-0.9c1.1-1,4.6-6,5.2-6.8c0.9-0.8,3.5-5.9,4.2-8.1
		C392.9,106.6,391.7,102.6,391.7,102.6"/>
	<path d="M36.8,74.4v1.4C37.3,75.3,37.3,74.7,36.8,74.4"/>
	<path d="M166.3,51.6l-0.1,1C166.3,52.4,166.7,52,166.3,51.6"/>
	<path d="M189.9,73.1c-1.5,0-0.8,1.5-1.2,2.3L189,78l-0.1,2.1v0.7c0.3,0.1,0.4,0.6,0.8,0.5c0.8-0.3,0.3-1,0.3-1.5
		c0.4-0.5,0.4-1.3-0.3-1.7l0.5-2.7l0.6-0.6C190.9,73.9,190.4,73.5,189.9,73.1"/>
	<path d="M211.4,87.8c0.1-0.8,0.4-1.7-0.3-1.7l-0.1-0.6c-0.1-0.5,0-1.3-0.8-1.1c-0.3-0.6,0.1-1.4-0.8-1.7c0-0.7,0-1.6-1-1.4
		l-0.3,0.8v1.4l0.7,1.7l0.6,1.1l0.3,0.6c-0.3,0.8-0.1,1.5,0.6,1.8c0,0.8,0.6,1.2,0.9,1.8c0.1,0.9-0.4,2,0.8,2.2
		c1-0.2,0.6-1.7,0.5-2.4C212.7,89.3,212.3,88.4,211.4,87.8"/>
	<path d="M386.9,107.4c-0.4,0.6-1.1,0.8-0.9,1.5c-3.1-0.8-5.2,0.8-7.7,1.7c-0.8,0.2-0.3,1.1-0.5,1.7c0.4,0.4,1.2,0.8,0.9,1.7
		c1.7,1.2,3.6,2.9,3.7,4.9c-1.1,0.5-2.3,1.7-2.4,3.1c-1.1-0.2-1.6,0.3-2.3,0.7c-2.6-0.8-6.5,1.9-7.2-1.5c-0.6-1-1.4-0.6-2.3-0.8
		c-0.1-0.9-0.2-2.1-1-2.4c-0.1-1.5-2.2-0.6-3.2-1.3c-1.2-0.3-2.2-1.3-3-2.3h-0.5c-0.1-0.7-1.1-0.8-1.3-1.5c-0.1-2.9-3.7-2.4-5.1-4.5
		c-0.3,0.3-0.7,0.1-1.1,0.1c-0.1-0.5-0.7-0.2-0.9-0.6c-0.1-1.7-2-2.6-3.6-3.2c-0.4-1.3-2.4-0.3-3.2-1.4c-2.4,0.2-3.5,1.9-6.3,1.3
		c-0.3-0.2-0.1-0.6-0.1-0.8c1.1-1,2.1-2.7,3.2-3.7c0.7-1,1.7-2,1.9-3.1c1.7-0.7,3.1-2.1,3.8-3.9c0.8-0.1,0.4-1,0.9-1.3
		c1.2-0.8,2.4-3.3,4.6-2l1.8-0.3h0.3c0.4,1.3-1.7,1.7-0.5,2.8c1.8,0.3,3.1-0.7,4.9-0.3c1.1,1.9,3.8,1.1,5.3,2.7
		c0.8-0.1,0.6,0.8,1.4,0.5c0.8,1.1,2.7,0.9,3.5,2.1c0.8-0.3,0.9,0.7,1.7,0.6c0.3,0.9,1.6,0.5,2.1,1c0.6,0.7,2.1,0.3,2.3,1.4v1.4
		c-0.3,0.5-0.8,1.2-0.8,1.7c0.1,0.5-1,0.8-0.1,1.2c0.8,0.1,1.2-0.5,1.8-0.7c3.4,0.1,7.3-1,9.7,1.5
		C386,106.5,387.3,106.5,386.9,107.4 M333.8,98.5c0.3,0.8-0.5,0.6-0.9,0.8c-0.5,1.5-1.9,1.7-3,2c-1.5,0-2.8,0.8-4.3,0.3
		c-2.1-0.9-4.8-0.8-6.6-1.9c-1.3-0.5-0.2,1.1-1.3,1.1c-0.8,1.7-1.7,2.7-3.3,3.5c-1.1-0.3-1.4,0.5-2.4,0.4c-2.2-0.4-4.9-0.3-7.1-0.1
		c-0.6-0.3-1.3-0.8-1.7-1.4c0.6-2.1,0-4.6,1-6.4l0.1-1.4h0.1c1.1-3.1,0.4-6.4,0.6-9.9c0.1-1.2-1.4-1.4-0.9-2.6
		c0.3,0,0.3-0.3,0.3-0.4v-0.5c0.5-0.5,1-1.2,1.7-1.8l3.8,0.1c0.3,0.8,1.9,0.5,2.2,1.4c0.8-0.1,1.3,0.6,1.7,1.2
		c0.8,1.9-1.9,2.1-2,3.6c-0.5,0.2-0.3,0.9-0.6,1.3l-0.1,1.2c1.5,0.6,1.5-1.1,2.7-1.1c1.5-0.3,3.9,0.2,4.2-1.4
		c-0.1-0.4,0.3-0.4,0.5-0.6h1.9V86h7.7c0.8-0.5,1.9-0.4,2.8-0.6c0.5-0.3,1.7,0.1,2-0.7c2.6,0.1,5.5-0.5,7.4,1.1h0.6
		c0,1.4,0.1,3-0.6,3.9c-0.3,0.8-0.1,1.7-1,2.4c-0.1,0.9-0.4,1.5-0.9,2.1C336,94.8,336,97.3,333.8,98.5 M300.6,57.8
		c-0.5-1.4,0.1-3,0.9-3.9c0.4-0.3,1-0.4,0.9-1.1c1-0.3,0.8-2.6,2.6-2l0.9,0.7c0.1,0.8,1,1.2,0.9,2.1h0.3c-0.1,0.5,0.2,0.9,0.5,1.2
		c1.7,0.1,1.2-2.2,3-1.9c1.4-1.8,3.2-0.3,5.2-0.7c2.1,0.7,4-0.6,6.3-0.6c0.6,0.8,1.5,0.7,1.7,1.5c0.9,1,2.2,0.2,3.1-0.4
		c0.3-0.7,1.2-0.4,1.7-0.8l15,0.3c0.6,0.8,2.4,0.1,3,1.2c1,0.4,2,0.8,2.7,1.5c0.9-0.2,0.6,1.1,1.5,0.6c1.7,1.6,2.5,3.5,4.5,4.8
		c0.7,1.7-1,2.3-1.9,3.1c-1,0.5-1.9,1.5-3,1.8c-2.1,1.6-5.6,0.5-7.9,1.5c-2.6,0.6-6.8-0.8-8.6,1.3c-1.2,0.5-0.9-0.8-1.3-1.3
		c-0.1-1.1-0.3-2.3-1-3.1c-0.1-0.8-0.5-1.2-1-1.8c-0.1-0.5-0.9-1.2-1.5-1.6c-1.2,0.7-1.9,2.1-3.6,2.1c-0.3,0.7-1.6,0.8-1.1,1.9
		c-1.7,0.2-3.8-0.4-5,0.6c-0.6-0.3-0.7,0.4-1,0.6h-10.3c-0.9-0.4-1.3-1.1-2.4-1.3c0.2-1-1.1-0.9-0.9-1.9c-0.8-0.7-0.7-1.8-1.8-2.3
		C301.9,59.3,300.8,59,300.6,57.8 M48.1,65c2.1-1.3,3.7-3.8,6.3-3.9l0.5,0.8v3.8c-0.6-0.2-0.4,0.4-0.6,0.6C52,67,49,66.7,46.7,66.1
		C46.5,65.4,47.6,65.3,48.1,65 M302.4,84.7c-0.8,0.5-1.7-0.7-1.9,0.6c0.7,4-3.1,5.7-2,9.8c-0.5,1.1-1.3,2.3-1,3.9
		c-0.8-0.1-0.4,0.8-0.8,1.1c-0.9,0.7-1.6,1.3-2.9,1.9c-2.3-0.4-5.5,0.8-6.8-1c-1.5,0-1.3-1.8-2.9-1.8c-1.3-0.9-1.7-2.2-3.2-2.6
		l-2.6-2.4c-1.4-0.3-0.8,2-2.4,1.4c-0.8-0.9-0.2-2.3-1.7-2.6c-0.9,0.4-0.5,1.9-1.7,1.9c-0.5-0.6-0.3-1.6-0.1-2.3
		c0.5-0.2,0.3-1,0.8-1.1c-0.1-3.2,2.6-4.9,3.3-7.5c0.3-0.5,0.6-1.2,0.9-1.8c1-3.7,2-8,0.3-11.6l-0.4-0.5c-1,0.5-0.3,1.7-1.4,2v0.4
		h-0.1c-0.5,0.6,0.3,1.9-0.8,2c-1.4,0.3-1.9,2-3.3,2.5c-0.3,0.6-1.1,0.4-1.2,1.2c-0.8,0.5-2.5,1.2-2.5,2.4c-2,1.3-3.3,3.1-3.7,5.3
		c-0.6,1.2-2.1,1-2.2,2.4c-0.9,1.2-2.4,1.2-2.9,2.7c-0.3,0.3-0.7,0.1-1,0.1c-0.8-0.8-0.9-2.2-1.7-2.8c-1.3,0-1.6,1.6-3.3,1
		c-0.8-0.5-1.3-0.7-2.2-1.1c-0.8,0.6-0.3,1.5-0.4,2.4l-2.2-0.3c-0.3-0.4-1-0.5-1.2-1c-1.3-0.7-2.3-1.7-2.7-3
		c-0.8-0.5-0.3-1.7-1.2-2.1c-0.9-2.1-1.4-4.8-0.8-7.1h-1.2c-0.1,1.4-0.8,2.6-1.2,3.9c-1.7,2.1-2.9,4.6-4.3,7c0,0.6,0,1.4-0.6,1.7
		c0.3,0.9,0.7,2.6-0.3,3.4c-1.8,0.5-3.7,1.2-5,2.1c-2.9,0.6-5.8,1.5-8.5,2.4c-3.1,0.5-5.2,1.6-7.7,2.8c-1.7,0.2-2.8,1.3-4.7,1.3
		c-0.9,0.6-2.4-0.3-3.1,1h-1.2c0-0.6-0.7-0.1-0.9-0.5c0.5-2-1.1-2.9-1.4-4.6c-0.1-2.2-0.5-4.4-1.2-6.3c-0.4-1.4-1-2.5-1.3-4.1
		c-0.8-0.9-0.4-2.1-0.8-3.2c-1.4-3.9,0.6-7.8,0.6-11.8c0-1.7,0.5-3.2,0.8-4.8c-0.2-0.4-0.7-0.4-0.9-0.1c-0.9,0.8-0.9,2.1-2.2,2.2
		c-1.1,0.6-0.9,1.7-1.8,2.4c-0.1,0.8-0.4,1.4-0.3,2.3h-0.1c-0.7,2.2,0.1,5-0.8,7.1l-0.3,7.3c-0.7,0.7,0,1.9-0.6,2.6
		c-0.2,3.5-1.7,5.9-3.3,8.8c-0.1,1.8-1.5,3-1.8,4.9c-1.2-0.2-2.2,0.1-2.7,1.1v0.3c-1.1,0-1.8,1-2.7,1.4l-2.3-0.1
		c-0.7-1.1-0.2-2.8-1.8-3.1c-1.3-0.5-0.1-2.6-2-2.5c-0.7,0.3-0.5,1.1-0.7,1.7c0.8,0.6,0.3,1.7,0.4,2.5c-1.9,0.3-1.1,2.7-3,3
		c-2-0.1-4.2,0.2-5.9-0.3v-0.1c-0.4-0.3-1-0.1-1.5-0.2c-0.4-0.4-1.5-0.3-1.8-0.8c-1-0.1-1.6-0.3-2.6,0c-0.8-0.5-2.4,0.4-2.6-0.7
		c0.1-2.3-2.4-3.2-3.6-4.8c-0.7-1,0.7-2.4-0.6-3c0.3-0.9-0.4-1-0.6-1.7c0.4-1.7-0.6-3-0.9-4.5l-0.8-0.4c-0.8,1.3-1,2.7-0.9,4.4
		c-0.3-0.1-0.3,0.3-0.3,0.5c0.2,1.5,1.3,2.5,1.1,4.2c0.4,0.7,0.6,1.5,0.5,2.5l-3.2,0.1c-0.6-0.3-1.4-0.6-2.1-0.8
		c-1.1-0.1-1.5-1.2-2.9-0.8c-0.2-0.6-1.1-0.5-1.5-0.8c-1.3-0.3-2.8,1.1-3.5-0.1c-2.1-2.7-4.9-6.3-3.3-10.4c1.4-2.8,5.6-1.2,7.4-4.3
		c1-0.8,1-1.7,1.8-2.5c0.1-1,1.2-1.1,0.9-2.4c0.7-0.9,0.6-2.1,1.3-3.1c0.5-2.3,0-5.2,1-7.3c-0.8-0.5-2.2-1-3.2-0.4
		c-2.2,0.6-0.1,3.7-3.1,3.5c-1.7,1.2-1.1,4.6-3.8,5c-1.2,1.6-3.3,1.3-4.8,2.6c-0.8,0-1.5,0.3-1.5,1.1v1.4c-0.9,0.2-0.7-0.7-0.9-1.2
		c-1.6-1-0.6-3.4-1.8-4.4c-0.4-1.3-1.1-2.6-2.3-3.3c-0.3,0.2-0.1,0.5-0.1,0.8c0.6,0.1,0.2,0.7,0.3,1.1c-0.1,0.3-0.6,0.3-0.9,0.3
		c-1-1.3-2.4-2.8-2.3-4.6c-0.6-0.4-0.7-0.8-1-1.4c-0.4-1.9,0.6-3.4,0.9-4.9c-0.1-0.7-0.3-1-0.9-1.4c-0.2,0.1-0.5-0.1-0.6,0.1v0.3
		c-1.2-0.3-0.6,1.1-1.3,1.3v0.5c-0.4,0.5-0.4,1.5-0.6,2.2c0.6,2.3,0.4,5.1-1,6.8c-0.2,2.8-1.4,6.4,1,8.4c1-0.1,1,1.3,2,1
		c1,0.5,2.7,1.6,2.9,2.8l1.2,0.5c-0.1,1.8,0.4,3.9-0.4,5.4c-0.1,0.5,0.2,1.1-0.3,1.4c-0.1,1.8,0.3,4.3-0.9,5.7v2.3
		c-0.2,0-0.3,0.3-0.3,0.5c-0.4,1.6-1.5,3-2.7,4.2c-1.5,0.4-2.2,1.2-3.8,1.7c-0.1,0.6-0.9,0.1-1.2,0.6c-2.3,1.6-5.3,2.2-8,3.1
		c-2.8,0.1-6.4,1.1-8.5-0.8c-2.1-0.1-3.2-1.9-4.4-2.8c-0.4-1.1,0.4-3.2-1.7-3.1c0.1-1.9-2.3-1-2.4-2.8c-0.3-2.8,1-6.4-1.8-8.1
		c0.2-1.2-1.7-1.6-0.6-2.7c0.1-0.3,0.4-0.6,0.3-1.1h0.1l0.3-5.3c0.7-1.7,3.8-2.2,3.5-4.8c0.4-0.6,0.5-1.4,0.6-2.3
		c0.6,0.1,0.2-0.5,0.3-0.8c0-1.7-0.9-3.4-2.4-4.2c-0.4-1.1,0.7-2.4-0.8-3.1c-1,0.6-2.8,0.7-3.6,1.7c-0.9,0.1-1.7,1.2-2.7,0.1
		c-0.2-1.3-1.8-1.5-2.4-2.5c-0.7-1.1-2-1.7-3.3-2.4c-0.4-0.2-0.6-0.6-1.3-0.7c-0.8-0.1-2.2-0.9-2.4,0.2h-5.3v-0.2
		c-3.8-0.2-9-1.6-12.3,0.7c-0.9-0.4-0.6,0.7-1.4,0.6c-1.4,1.2-3.6,1.7-4.5,3.4c-1.7,0.7-2.6,2.4-4.1,3.5c-0.1,0.5-0.3,0.7-0.6,1
		c-1.4,0-2,1.1-3.6,0.7c-0.4-0.3-0.8-1.1-1.4-0.6c-2.5-0.8-1.4-4.1-1.5-5.8v-0.5c0.2-0.4,0.7-0.6,0.8-1.1l1.8-1.7
		c3.8-0.6,8.4,0.7,12-0.7c0.1-0.6,0.6-1,1.1-1.5c1-1.8,0.1-3.5,0-5.4c-0.6-0.2-0.4-0.7-0.5-1.3c-0.6-0.5-1.3-1.5-2.6-1.1
		c-0.7-1.1,0.7-1.3,0.6-2.4c0.8-0.2,1,1.3,2.1,0.6c0.4-1.3,2.6-1,3.8-0.8c0.1,0.5,0.7,0.1,0.9,0.5c0.8,1.2,1.3,2.4,3,2.1
		c0.6-0.7-0.1-1.6-0.1-2.5c0.1-2.2,0.6-4.3-1.3-5.5c-1-0.1-1.8-1.1-3.1-0.7c-0.1,0.3-0.4,0.5-0.4,0.7c0.5,1.2,0.7,2,0.6,3.3
		c-0.6,0.2-1.2,0.1-1.8,0.1c-0.9-0.3,0-2.2-1.7-1.8c-0.1-0.8,0.3-1.9-0.6-2.4c-0.9,0.4-1.7,0.9-2.3,1.7c-0.1,1.9-0.9,3.5-1.7,4.8
		c-0.6,1.9,0.1,4.8-2.1,5.5l-0.5-0.1c-0.1-1.7,0.6-4.3-1.2-5.5c-1.6-1.3,2.5-3-0.6-2.8c-0.5,0.6-1.6,0.9-1.5,2.1
		c1.5,1.8,1,5.2,0.5,7.5c-0.7,0.1-0.3,1.4-1.4,1c-1.9-1.6-0.6-5.1-3-6.4c-1.5,0.6-0.8,2.4-1.3,3.6c0.1,1.6,0.5,3.7-0.3,5.1
		c-0.7,0.1-1.2-0.2-1.4-0.6c-1.5-0.4-3.1-0.7-3.6-2c-1-0.8-1.4-2.1-2.4-2.9c-0.7-2.4,0.5-4.3,1.4-6v-0.3c-1,0.2-2.6,1.4-4,0.5
		c-0.1-1.2-1.7-1.2-1.7-2.5c-1.1-0.3-0.3-1.5-0.6-2.4c0.6,0,0.1-0.7,0.4-1l1.4,0.1v0.1c0.4,0.3,0.9,0.1,1.3,0.2
		c1.2-1-0.6-4.2,2.2-3.7c1,1-0.8,2.8,0.9,3.2c0.9-0.1,1.2-0.7,1.7-1.2c0.6-1.4-1.1-1-1.1-2c-0.8-1,1-1.6,1.3-2.5
		c0.4,0.1,0.8,0,1-0.5c2.4-1.8,5.8-3.9,8.6-5.7c-0.1-0.7,0.8-0.3,0.9-0.8c1.5-1.5,2.6-2.9,2.9-5c0.2-0.5,0.7-1.2,0.7-1.7
		c0.8-1.5,1.3-2.8,3.2-3.2c0.3-0.4,1.5,0.3,1.5-0.6c3.1-1.2,7.5,0.1,10.7-1.1c2-0.2,3.6-1.1,5.6-1.2c-0.1,0.7,0.8,0.5,1.2,0.7
		c0.5,0.4,1.3,1.6,2,0.6c1-1.1,3.8-1.1,3.1-3.2C77.4,21.2,77,21,77,20.5c1.5-0.8,3.3-1.3,5.1-1.7l0.5,2.4c0.7,0.3,0.5,1.3,1.2,1.6
		c0.3,1.1,2.3,1.5,2.4,2.9c0.3,1.8,1.4,4.1,0.1,6c0.4,0.7-0.5,0.3-0.5,0.7c-1.3,0.6-1,2.4-1.1,3.5c0.6,0.6,1.2-0.4,1.7-0.5
		c1.2-0.4,0.6-1.9,1.8-2.1c0.6-1,2-0.4,2.8-0.5c0.2,1.3,0.5,3,1.9,3.5c1,0.4,1.4,1.3,2.4,1.7c0.2,0.4,0.8,0.5,1,0.8
		c2.4-0.1-0.6-5.3,3.2-4c0.8,0.9,1.7,1.3,2.1,2.4c0.6,1.2,2,1.9,2.3,3.2c1.8,0.6,0.6,3.7,2.7,4.4c-0.7,2.8,0.1,6.1-0.6,9H106
		c0.3,2,0.8,4.6,0.1,6.9c0,1.2-0.7,2.6,0,3.7c1.1-0.3,2.7-0.8,3.1-1.9c2.2-1.5,1.8-3.5,3.6-4.9c0.8-2.1,2.2-4.6,3.4-6.4
		c0.3-1.5-0.9-3.4,0.8-4.1c0.3-0.4,0.6-1,0.9-1.5c0.3-1.5,0.4-3.1,1-4.5h0.6c0.4,2.1-0.3,4.2-0.5,6.3c-0.4,0.5-0.6,1.2-0.8,1.9
		c0.3,0.3,0.8,0.3,1.3,0.3c1-0.6,2.2-0.9,2.4-2.2c0.5-0.6,0.8-1.5,2-1.2c0.4,1.4-0.8,1.7-1.1,2.8c-0.4,0.1-0.8,0.3-0.7,0.8
		c0,0.2-0.1,0.6,0.3,0.6c1-0.1,1.2-1.3,2.3-1.4c1.3-1.8,3-3.1,3.5-5.3c0.5-0.4,0.8-1.2,0.9-1.9c0.2,0,0.4-0.3,0.3-0.5v-0.4
		c0.4-0.4,0.4-1,1.2-1.2h0.3c0.2,0.8-0.3,1.3-0.3,2c-0.6-0.1-0.1,0.5-0.4,0.7c0,0.8,0.8,0.9,1.4,1.2c0.9,0.8,2.4,2.2,2.7,3.5
		c0.8,0.3,0.8,1,0.8,1.8c-0.7,0.4-0.7,1.5-1.1,2.2c-0.3,0.5-1.1,0.9-0.8,1.7h-0.1c0.1,2.4-1,4.8-0.1,7.1c1-0.1,1.3-1.2,1.5-2
		l0.1-1.6c0.4-0.4,0.5-1.5,0.9-1.9c0.2-1.2,2.7-2.4,1.4-4.2c0.1-1.6,0.9-2.5,1-4c1.7-0.6,2.4-2.8,3.8-3.8c0.8,0.4,0.4,1.4,1.5,1.4
		c0.2-0.7,0.7-1.3,1.5-1.4c1.4-0.3,1.2,2.3,2.9,1c0.1,0.7,0.5,1.4,0.9,1.7c1.1,0.7,3.6-0.5,3.3,1.5c1,0.6-0.1,2.4,0.9,3
		c0.3,1.3-1.5,2.1-0.4,3.3c-0.8,1.9-0.1,4.1,1.2,5.3c1.3-0.5,0.6-2,1.7-2.5c0.1-1.2,0.6-2.3,0.6-3.5c1.3-1.4,0.8-4,3-4.3
		c0.7-0.2,1.3-0.8,2.2-0.6c0.6,0.4,1.7,0.3,2.1,1.1c1.5,0.6,2,2.1,2.6,3.2h0.8c1.5-0.9,1.5-2.8,1.4-4.6c0.5-0.2,0.2-0.6,0.3-1
		c1,0,2.4,0.8,3-0.5c1.5-0.3,0.8,1.6,2.3,1.6h0.8c0.4,0.4-0.1,1.3,0.4,1.7c1.1,0.3,1.4-1.5,2.3-0.3c-0.3,0.8,0.8,0.8,0.1,1.5
		c-0.6,1.5-0.6,3.2-0.8,4.8c-0.4,0.5-0.4,1.4-0.6,2.1v0.4c-0.3,0.6-0.7,1.3-0.8,2c0.3,1.5-1.3,2.1-0.8,3.7h-0.1
		c-0.4,3.7-0.1,7.7,0.9,10.9c1.1,2.5,1.4,5.2,2.1,8c0.7,0.3,1.2-0.5,1.4-1c0.5-5.7-1-10.4-0.3-15.8c0.5-3.9,2.2-7.8,4.4-10.7
		c-0.2-1.4,1.6-1,2.4-0.8c-0.1,1.9,2.9,0.3,3.2,1.9c0.6,0.4,1.3,1.1,2.3,0.8c-0.1,2.2,0.8,3.4,2,4.9c0.5-0.3,1-0.5,0.8-1.2
		c0.5-0.2,0.2-1.4,1.2-1c0.8-0.3,0.6,0.6,0.8,0.8c0.1,0.6-0.3,1.4,0.5,1.7c1-1.1,2-1.9,3.5-2.3c2.1-1.1,3.1-4.9,6.3-3.9
		c-0.1,0.5,0.6,0.1,0.8,0.4l0.6,1l0.3,9.3h0.6c0.6-0.4,0.6-1.4,1.2-1.8v-0.4c0.6-0.5,0.8-1.5,1.4-2c1.8-1.6-0.8-5.7,2.9-5.9l3.3-0.1
		c0.4,0.3,1.4,0.3,1.7,1.1c-0.1,0.6,0.3,1.1,0.6,1.7c0.1,2.1-1.7,4.6,0.3,6.3c0.5,1,0.9,1.6,1.4,2.8l0.7,1c0.2,0.9,1.2,1.2,1.3,1.9
		c0,1.3,1.5,2.2,1.2,3.7c-0.2,1.7,1.9,1.4,1.4,3.2c0.2,1,0.7,2,1.3,2.6c-0.4,0.8,0.8,0.8,1.1,1.3c0.5-0.5,1-0.9,1-1.7h0.1
		c0.1-2.3-0.7-4.3-1.1-6.6c-0.5-1.2-0.3-2.8-0.1-4.1c-0.1-0.6-0.4-1.5-0.9-2.2V56.4c0.7-0.2,0.7-0.9,1-1.3c0.4-0.6,0.6-1.2,1.1-1.7
		c0.7-0.5,2,0.3,2.3-0.8c0.3-0.8,1.1-0.3,1.7-0.4c0.8,0.8,2,1.1,2.1,2.1c0.4,0.6,0.4,2.1,1.5,2.2c2.4-1.1-0.1-3.3,0.6-5.3
		c0.4-0.2,0.3-0.8,0.6-1.2c1.4-1.9,4.4-1.5,6.4-2.5c2.5,0.1,4.7-0.7,7.2-0.4c0.3,0.2,1.3,0.5,1.3,1.2c0.4,2.3-1.7,3.9-0.5,6.2
		c-0.7,0.8,0,1.9,0.3,2.5c0.3,0.6,0.7-0.1,1.1-0.1v-0.5c1-0.1,1.2-1,2.1-1.2c2.4-0.8,5.7-0.6,8.2-1.3c2.6-0.3,4.8-2.4,7.4-1.4
		c0.3-0.7,1.5-0.4,1.8-1.2c1.2,0.1,0.2,1.6,1.3,2.1c0.1,0.9-0.3,1.9,0.3,2.6c1.1,0,2.1-1.4,2.9-2.2c1-1.3-0.3-3.9,1.9-4.4
		c1.9,0.2,4.1,1,5.1,2.8c0.8,0.7,1.8,1.6,2.9,1.8c0.4-0.8,1-1.2,1.8-1.4c0.3,1.4,0.3,3.4,2.3,3.7c-0.3,0.8,0.8,0.5,0.4,1.3
		c0.5,0.8,1.2,0.1,1.9,0.3c0.6,3.3,2.2,6.7,0.9,10.1c0.5,1,1,1.9,0.8,3.2h-0.1c-0.3,1.1,0,2.4,0.3,3.2c1.5,0.6,4-0.1,5.2,1
		c1.9,2.3-0.7,6.2,1.7,8.4h0.5V84.7z M88.8,112c-0.4,0.3-0.4,1.1-1.2,1c-0.3-0.7,0.1-1.9-0.9-2.2c-1.6,0.3-1.6,2.1-2.8,2.8
		c-1.3,0-2-1.3-3.3-1.2c-0.4-0.5-1.1-1.1-1.5-0.3c0.5,1-0.8,1-0.6,2c-0.7,0.3-0.4,1.5-1.3,1.7h-5.4c-1-0.8-2.7-0.4-3.3-1.5
		c-1.6-1.2-3.8-0.6-5.5-1.5l0.1-1.8c0.8-0.1-0.1-0.6,0-1c-0.1-0.2-0.4-0.1-0.6-0.1c-1.2-1.7-2-3.5-2.9-5.6c-0.8-1.2-2.2-2.6-3.6-3.2
		c0.1-1,0.9-1.4,1.5-2.3c1.3,0,2.1,1.1,3.2,0.2c1,0,1.6-0.6,2.6-0.7c0.2-0.5,0.8-0.2,1.2-0.3l1.2-1.1h7.9c0.1,0.3,0.6,0.3,0.9,0.3
		c1-0.3,1.7-0.6,3-0.4c0.6,0.1,1,0.6,1.2,1.1l1.3,0.6c0.6,1,1.8,0.8,1.9,1.9c0.6,1.4,3.2,0.7,2.9,2.7c0.6,1.3,2.9,0.8,3.3,2.1
		C87.5,107.5,89.5,109.2,88.8,112 M54.4,118c0,1.3-1.3,2-2.1,2.6c-0.8,0.1-1.2-0.1-1.7-0.6c-1.7,0.5-1.7,1.9-3.2,3
		c-2,0.1-4.7,0.4-6.3-0.3c-0.4-1.5-1.6-2.1-2.3-3.4c-1-0.1-0.6,1.2-1.5,1.1c-0.3,0.8-0.6,1.7-0.4,2.5c0.5,0.4,1,1.3,0.6,2
		c0.2,1-1,1-1.3,1.7c-2.8-0.3-4.3,1.6-6.8,1.5l-5.2-0.2c-0.6-0.1-0.8-0.8-1.7-0.6c-0.6-2-4.6-1.9-3.3-5c-0.8-0.8-0.3-2.4-0.4-3.6
		c-1-0.2-1.7,1.3-2.3,2.1c-0.3,0.9-1.5,2.2-0.6,3.4c0.3,0.7-0.3,1.1-0.6,1.7c-1.5,0.6-2.8-0.5-3.5-1.3c-2.4-1.7-1.3-5.3-0.9-7.8
		c0.4-0.6,1.1-1.4,1.2-2.2c3.4-2.3,5.1-6.1,9.3-7.9c0.2-0.1,0.5,0.1,0.8-0.1c0.8-0.4,2.1-0.5,3.3-0.5c0.3,0.6-0.6,1.1,0.2,1.6
		c0.4-0.1,0.6-0.4,1-0.3c0.2,0.8,0.3,2,1.2,2.4c-0.3,1,1.1,0.3,1.5,0.7c0.5,0.1,0.8-0.2,0.9-0.6v-2c0.8-0.5,1.7-1.2,2.9-0.7
		c0.5,0.8,1.8,0.9,2.8,1.2c0.8-0.2,2-0.1,2.9,0.3c0.8-1.6-1.4-3.4,0.4-4.3c4.4-0.2,9.3-0.6,12.5,1.9c1.1,0.1,1.4,1.2,2.1,1.9
		c1,0.7,0.6,2.4,1.4,3.3C54.8,113.7,55.5,116.4,54.4,118 M344.4,31.4c-1.6-1-2.9-2.1-4.9-2.5c-0.9-0.1-0.9-1.2-2-0.8
		c-0.5-0.3-1.1-0.6-1.7-0.8c-0.8-0.3-1.4-0.7-2.3-0.6v-0.1c-1.9,0.2-3.3-0.9-5-1c-0.4-0.5-1.3-0.2-1.5-0.8c-1.2-0.3-2.4-0.4-2.8-1.7
		c-0.8-0.5-0.9-1.6-1.5-2.2c0.5-2.1-0.6-5.3,0.9-7.1c-0.1-1,1.1-1.5,1.8-2.1c2.3-0.7,3.5,2.2,5.4,0.6l1.1,0.1
		c0.5,0.8,2.1,0.6,2.8,1.2c1.9,1,4.1,1.3,4.8,3.1c0.3,0.3,0.7,0.1,1,0.1c0.6-0.7,1.5-2.2,2.8-1.9c0.3,0.3-0.1,1,0.6,1
		c1.7-0.3,1.5-3.6,4-1.9c1.1,0.1,2.4-0.3,3.3,0.3h0.8c0.4,0.5,1.5,0.8,2.2,1.2c0.6,0.5,1.6,0.6,2.2,1.2c1.2,0.3,1.9,1.6,2.7,2.5
		c0.3,0.8,1.7,0.7,1.8,1.7c0.8,0.3,1.4,0.7,1.9,1.3c0.6,0.8,2.7,0.5,1.8,2.1c-0.8,1.3-1.6,3-3.3,3.3c-1.5,0.3-2.6-0.4-3.2-1.4
		c-0.2-1.1-0.2-2.2-0.6-3.2c0.2-0.8-0.5-1-0.9-1.4c-2.4,1.3-4.4,3-5.4,5.6c-0.9,0.6-1.2,1.6-1.2,2.7c-1.4,0.6-2.5,1.5-3.5,2.5
		C345.6,32.4,345.6,31.1,344.4,31.4 M366.7,29.6c0.7-0.2,1.6-0.5,2.4-0.2c0,1.4,1.8,1.5,2,3c0,2.6,0.7,5.8-0.6,8.1
		c-0.1,0.5,0.2,1-0.3,1.3v4c-0.3,0-0.4,0.3-0.3,0.5v0.4c-0.3,0.4-0.6,1-0.9,1.5c-0.3,1.1-1.2,1.7-1.2,2.9c-1.9,1-2.8,2.6-4.4,3.7
		c-1.8,0.7-0.6-1.5-1.8-1.5c-1.5-2.2-3.7-2.6-5.6-4.4h-0.4v-0.1c-1.9-0.7-3.3-1.9-3.8-3.7c0-1.1,0.1-2.2,0.3-3.2
		c0.5-0.6,0.5-1.9,0-2.5c-0.2-1-0.8-1.9-0.6-3.1c2-1.7,4.2-2.1,6.3-3.1c2.3,0,5.2,0.4,6.4-1.4C365.8,31.9,365.6,30.2,366.7,29.6
		 M316.2,27.9c-0.6-0.1-0.1,0.5-0.5,0.6c-1.3,2.5-4.5,1.9-7.1,2c-0.2-0.4-0.7-0.3-1-0.3c-0.1-0.6-0.9-0.1-1.2-0.4
		c-1.3-0.3-2.3-1-3.2-1.9c-1.2-0.5-2-1.7-2.2-2.7c-0.6-0.3,0.1-1.1-0.6-1.4c-0.3-0.8,0.6-1.2,0.3-2.1c0.6-0.1,0-1,0.6-1.3
		c0.9-0.2,0.3-1.4,1.2-1.7c0.3-1,1.2-1.7,1.9-2.1c1.5-1.6,4.3-1.9,6.3-2.9c1.1-0.2,2.5-0.2,3.6,0l0.3,0.8l-0.1,1.9
		c0.6,0.8,2.1,1.1,1.5,2.4c-0.5,0.4-1.1,1.1-0.3,1.7c0.2,1.1-0.4,2.4,0.5,3.2V27.9z M391.8,102.6c0.2,2.3-0.1-0.3-0.2-0.5
		c-1.1-0.8-2.9-3.1-4.4-3.9c-0.5-0.5-5.3-2.3-5.6-2.4c-2.4-1.2-3-1.3-5.5-2.3c-3.1-1.3-6.1-2.9-9.1-4.2c-3.9-1.6-7.7-3.4-11.4-5.4
		c-2.5-1.4-10.3-6.2-11-6.4c-0.7-0.2-17.7,1.1-27.7,0.6c-1.7-1.1-3.8-2.1-4.9-3.7c-1.1-0.5-2-1-2.7-2c-0.5,0.1-0.2-0.5,0.1-0.3
		c5.8-0.5,12.2-0.3,18.2-0.1v0.1c1.2,0,2.4,0.1,3.5,0.3c12.1-0.3,20.3-1.6,30.8-8.5c3-2,8.4-8.4,11-13.5c4-8,3.2-20-2.1-26.6
		c-2.1-2.7-5.4-5.2-8.6-8.2c-6.3-3.4-10.7-6.1-16.8-7.1c-1.8-0.3-7.6-1-9.4-1.2c-13.9-1.4-26-2.6-36.5,5.2
		c-3.1,2.3-8.2,10.8-0.9,18.8c0.8,0.8,5.7,3.8,7.6,4.4c3.8,0.3,7.4-0.3,10.3-1.2c2-0.3,3.5-1.2,5.4-1.4c0.9,0,1.6-0.6,2.3-0.6
		c2.5,0,5.4-0.5,8-0.1c4.5,0.3,9,2,11.7,4.2c1.1,1.8,2.3,3.7,1.4,6.2c-1.7,2.3-4,3.1-6.1,4.1c-8.4-0.3-17.7,0.3-25.8-1.1v-0.1
		c-2.5,0-4.5-0.7-6.8-0.8c-0.8-0.4-2.2-0.3-3.1-0.7c-1.9,0-3.1-0.6-5-0.6v-0.1c-3.3-0.7-7.2-1.3-10.6-1.4c-3.9-0.1-7.7-0.8-11.6-0.9
		c-8.3-0.2-12.9,0.1-21.5,0.7c-6.5,0.5-16.1,1.5-24.1,3.5c-0.6,0.2-1.3,0.2-1.7,0.6c-2.9,0.3-5.5,1.1-8.4,1.4c-6.1,1-12,1-18.7,0.1
		c-3.5-0.6-5.1-0.5-7.8-1.1c-3.6-0.7-6.6-1.5-10.3-2c-4-0.6-8-1.8-11.9-2.9c-5.7-1.5-11.5-2.6-17.1-3.9c-3.9-1-8.1-1.8-11.7-2.6
		c-1-0.2-16.4-6.1-16.4-4.8v-0.1c-5.2-1.3-11.7,0.2-16.9-1.3c-6.8-1.7-9.5-7.3-14.2-10.9c-3-1.5-4.3-4.6-6.5-6.6
		c-1-1.2-2.4-2.2-4-2.4c-1.8-1-4.4-0.5-6.3-0.4c-0.8,0.3-1.9,0.2-2.4,0.8c-4.3,1.5-6.3,5.7-9.6,8.5c-1.2,0.3-2.4,0.7-3.6,1.1
		c-3.5,0.2-5.9,1.4-9.3,1.5c-0.2,0.3-0.7,0.1-1,0.1c-3.3,1-6.4,3.1-7.6,6.4c-1.4,3.6-3.4,6.7-6,9c-5.5,3.3-4.4,3.5-7.9,5.5
		c-1.8,1.4-3.1,2.4-4.6,3.7c-0.1,0.8-2.2,1.9-2.4,4.1c-0.4,3.6,1.8,7.9,4.6,10.1c0.5,0.9-0.1,2.9,0.2,3c0.9,0.3,1.3,5.3,5.1,6.3
		c0.9,1,2.9,1.5,2.6,3.4c0,0,0.6,3.5,0.1,3.9c0.5,1.7,0.9,2.2,2.3,3.7c1,1.4,2.9,1.7,5,1.9c4.4,0.6,5.3-0.6,8.1-2.5
		c1.3-0.2,1.6-1.7,2.7-2c0.4-2.1,3.1-2.3,4.8-3.2c1.2-0.1,1.5-1,2.7-0.8l8.3-0.5l5.7,0.6c3.1,2,2.1,2.5,4,4.4
		c-0.1,0.8,3.9,4.5,3.8,7.3c-0.8,1.2-1.6,3-3.2,3.6c-4,1.6-8.6,2.5-12.5,3.9c-1.2,0.6-3.7,1.7-3.7,1.7l-6.2,2.3c0,0-3.4,0.9-5,1.6
		c-3.8,1.1-3.6,1.5-7.8,1.9c-5.9,0-11.2,1.5-16.9,1.7c-3.2,0.4-6.1,0.6-8.6,2.1c-1.3,0.4-2.4,1.4-3.7,1.9
		c-5.7,3.5-12.1,10.1-10,18.3c1.3,2.7,2.7,5.5,6.2,6.3c0.3,0.3,7.5,2.2,7.5,2.2c2.4,0.5,3.8,0.8,7,1c1.9-0.1,3.6-0.2,5.3-0.7
		c2.6-0.9,5.2-1,7.4-2.4c1.3-0.1,7.5-2.6,11.1-3.9c3-0.9,4.3-1.3,6.3-2.3c3.8-1.9,7.6-3.1,12.4-3.5c0.4-0.1,1.6,0,2,0.2
		c10.5,0.4,21.3-0.1,31.2-0.7c2.2-0.6,4.6-0.5,6.7-1.1c4.7-1.3,7-2.3,10.8-4.5c1.8-1.3,2.5-1.4,4.6-2.9c2-1.4,3.3-2.1,4.3-3.3
		c1.2-0.8,1.3-1.5,2.3-1.2c0.8,0.2,5.7,1.3,5.7,1.3s4.7,1.1,7.6,1.7c1.5,0.3,5.2,1.1,7.7,1.6c2.9,0.4,4.3,1.1,10,1.6
		c1.5,0.4,10.7,0.9,10.7,0.9s12.6-0.6,19.5-3.4c8.1-2.8,23.3-6.9,23.3-6.9c3.6-1.1,6.4-1.8,8.9-2.7c3.6-1,7.3-1.9,10.8-3.1
		c1.4-0.6,6.9-1.8,9.7-2.5c4.3-0.6,7-0.2,11.1,0.7c1.6,0.3,4.7,1.3,5.3,1.5c5.1,1.4,7.8,2.4,12.1,4.1c3.2,1.2,6.9,3.1,10.1,4.1
		c3,0.9,9,1.6,9,1.8c3.5,0.3,5.7,0.6,9.1,1c4.8-0.1,8.8,0.2,14.4-0.5c12-0.4,26-0.6,28.8,1.2c3.9,1.7,5.7,5,13.3,10.6
		c0.9,0.8,10.7,5.5,11.4,6.1c5,1.3,9.6,1.1,12.9-0.9c1.1-1,4.6-6,5.2-6.8c0.9-0.8,3.5-5.9,4.2-8.1
		C392.9,106.6,391.8,102.6,391.8,102.6"/>
	<path d="M79.1,39.9c-0.7-0.1-0.8-1.1-1.8-0.7c-0.4,0.1,0.1,0.7-0.5,0.7c-0.3,2.4-3.1,2.8-4.4,4.6c-0.8,1,0.3,1.9,0.1,3
		c1.5,1.7-0.3,3.9-0.1,5.9c-0.8,0.8-2.1,0.1-3.2,0.1c-0.5,0.2-0.2,0.7-0.3,1.1c1,1.2,2.4,1.9,3.6,2.8c0.5,2-0.7,4-1.3,5.7
		c-0.1,0.9-1.5,0.6-2.1,0.8c-0.7,1.4,1.3,1.2,1,2.3c1,0.1,2.2,0,2.6-0.8c0.4-0.6,1.4-0.8,1.7-1.5c1.2-0.4,1.3-1.9,2.3-2.4l0.1-1
		c1-1.2,1-3.4,2.3-4.4c-0.4-2.1,0.6-3.5,0.3-5.6c-0.6-0.8-1.7-1.2-2.6-1.8c-0.1-1.7,1.3-2.5,1.9-3.8c0.8-0.1,0.6-1.1,1.1-1.4V41
		C79.6,40.8,79,40.5,79.1,39.9"/>
	<path d="M84.3,48.3c-0.3-0.7-0.8,0-1.3,0c-0.5,2.9,0.4,5.7-1.2,8.1c0.1,0.9,1,2.2,0,2.8c-0.1,1.9-0.8,3.4-1.8,4.9
		c-0.6,1.5,1.1,1.4,1.8,2c0.6,0.1,0.5,0.8,1.2,0.5c0.5-0.8,1.3-1.2,0.9-2.4c0.9-0.8,0.8-2.2,1.2-3.3C85.1,56.5,85.5,52.2,84.3,48.3"
		/>
	<path d="M75.7,32c0.3-1.3-1.2-1.1-1.7-1.7c0.3-0.6,1.3-0.6,1.2-1.4c-1.3,0.3-2.2-0.6-3.3-0.3c-1.1-0.4-2.7,0.3-3.6-0.5
		c-2.8-0.3-4.8,0.3-6.5,1.5c-0.2,0.8-1.5,1-1.1,2.1h0.5c2.9-1.1,6.3-0.2,9.4-0.3c0.8,1-0.8,1.5-1.2,2.3c-3.4,1.2-7.4-0.3-10.9,0.4
		c-2.7,1.7-4.7,3.9-6.4,6.2c0.2,1-0.3,2.3,0.5,3c1.1-0.5,2-1.1,3.3-1.4c3.8-0.5,7.2-1.5,9.1-4.1c1,0.2,1-1,2.1-0.6
		c1.5-0.6,2.4-0.9,3.6-1.9C72.5,34.5,73.1,32,75.7,32"/>
	<path class="st1" d="M54.3,66.3c0.3-0.2,0.1-0.8,0.6-0.6v-3.8L54.4,61c-2.7,0.1-4.3,2.6-6.3,3.9c-0.5,0.3-1.5,0.4-1.4,1.2
		C49,66.7,52,67,54.3,66.3"/>
</g>
</svg>
